<mxfile host="Electron" agent="Mozilla/5.0 (Windows NT 10.0; Win64; x64) AppleWebKit/537.36 (KHTML, like Gecko) draw.io/26.0.3 Chrome/130.0.6723.137 Electron/33.2.1 Safari/537.36" version="26.0.3">
  <diagram name="Page-1" id="JBjijhAm86WUNqYiixu8">
    <mxGraphModel dx="1793" dy="1488" grid="1" gridSize="10" guides="1" tooltips="1" connect="1" arrows="1" fold="1" page="0" pageScale="1" pageWidth="850" pageHeight="1100" math="0" shadow="0">
      <root>
        <mxCell id="0" />
        <mxCell id="1" parent="0" />
        <mxCell id="AtJumpGjlEffW8sw83j1-27" value="" style="rounded=1;whiteSpace=wrap;html=1;" vertex="1" parent="1">
          <mxGeometry x="800" y="20" width="300" height="380" as="geometry" />
        </mxCell>
        <mxCell id="AtJumpGjlEffW8sw83j1-1" value="" style="shape=image;verticalLabelPosition=bottom;labelBackgroundColor=default;verticalAlign=top;aspect=fixed;imageAspect=0;image=https://logosandtypes.com/wp-content/uploads/2020/07/kafka.png;" vertex="1" parent="1">
          <mxGeometry x="1030" y="30" width="40" height="40" as="geometry" />
        </mxCell>
        <mxCell id="AtJumpGjlEffW8sw83j1-7" value="" style="group" vertex="1" connectable="0" parent="1">
          <mxGeometry x="54" y="30" width="250" height="410" as="geometry" />
        </mxCell>
        <mxCell id="AtJumpGjlEffW8sw83j1-3" value="" style="rounded=1;whiteSpace=wrap;html=1;" vertex="1" parent="AtJumpGjlEffW8sw83j1-7">
          <mxGeometry width="250" height="370" as="geometry" />
        </mxCell>
        <mxCell id="AtJumpGjlEffW8sw83j1-2" value="" style="sketch=0;outlineConnect=0;fontColor=#232F3E;gradientColor=none;fillColor=#C925D1;strokeColor=none;dashed=0;verticalLabelPosition=bottom;verticalAlign=top;align=center;html=1;fontSize=12;fontStyle=0;aspect=fixed;pointerEvents=1;shape=mxgraph.aws4.rds_sql_server_instance;" vertex="1" parent="AtJumpGjlEffW8sw83j1-7">
          <mxGeometry x="86" y="22" width="78" height="78" as="geometry" />
        </mxCell>
        <mxCell id="AtJumpGjlEffW8sw83j1-4" value="" style="sketch=0;outlineConnect=0;fontColor=#232F3E;gradientColor=none;fillColor=#C925D1;strokeColor=none;dashed=0;verticalLabelPosition=bottom;verticalAlign=top;align=center;html=1;fontSize=12;fontStyle=0;aspect=fixed;pointerEvents=1;shape=mxgraph.aws4.rds_mysql_instance;" vertex="1" parent="AtJumpGjlEffW8sw83j1-7">
          <mxGeometry x="86" y="139" width="78" height="78" as="geometry" />
        </mxCell>
        <mxCell id="AtJumpGjlEffW8sw83j1-5" value="" style="sketch=0;outlineConnect=0;fontColor=#232F3E;gradientColor=none;fillColor=#C925D1;strokeColor=none;dashed=0;verticalLabelPosition=bottom;verticalAlign=top;align=center;html=1;fontSize=12;fontStyle=0;aspect=fixed;pointerEvents=1;shape=mxgraph.aws4.rds_postgresql_instance;" vertex="1" parent="AtJumpGjlEffW8sw83j1-7">
          <mxGeometry x="86" y="262" width="78" height="78" as="geometry" />
        </mxCell>
        <mxCell id="AtJumpGjlEffW8sw83j1-6" value="&lt;font&gt;&lt;b style=&quot;&quot;&gt;Source Databases&lt;/b&gt;&lt;/font&gt;" style="text;html=1;align=center;verticalAlign=middle;whiteSpace=wrap;rounded=0;" vertex="1" parent="AtJumpGjlEffW8sw83j1-7">
          <mxGeometry x="64" y="380" width="100" height="30" as="geometry" />
        </mxCell>
        <mxCell id="AtJumpGjlEffW8sw83j1-26" value="" style="group" vertex="1" connectable="0" parent="1">
          <mxGeometry x="430" y="30" width="250" height="400" as="geometry" />
        </mxCell>
        <mxCell id="AtJumpGjlEffW8sw83j1-8" value="&lt;b&gt;Kafka Connectors&lt;/b&gt;" style="text;html=1;align=center;verticalAlign=middle;whiteSpace=wrap;rounded=0;" vertex="1" parent="AtJumpGjlEffW8sw83j1-26">
          <mxGeometry x="70" y="370" width="60" height="30" as="geometry" />
        </mxCell>
        <mxCell id="AtJumpGjlEffW8sw83j1-9" value="" style="rounded=1;whiteSpace=wrap;html=1;" vertex="1" parent="AtJumpGjlEffW8sw83j1-26">
          <mxGeometry width="250" height="360" as="geometry" />
        </mxCell>
        <mxCell id="AtJumpGjlEffW8sw83j1-14" value="" style="group" vertex="1" connectable="0" parent="AtJumpGjlEffW8sw83j1-26">
          <mxGeometry x="20" y="30" width="210" height="60" as="geometry" />
        </mxCell>
        <mxCell id="AtJumpGjlEffW8sw83j1-12" value="" style="rounded=1;whiteSpace=wrap;html=1;" vertex="1" parent="AtJumpGjlEffW8sw83j1-14">
          <mxGeometry width="210" height="60" as="geometry" />
        </mxCell>
        <mxCell id="AtJumpGjlEffW8sw83j1-11" value="" style="shape=image;verticalLabelPosition=bottom;labelBackgroundColor=default;verticalAlign=top;aspect=fixed;imageAspect=0;image=https://www.confluent.io/hub/static/6e774deb22405f068a0977861bae4b1f/b6d35/color_debezium_256px.png;" vertex="1" parent="AtJumpGjlEffW8sw83j1-14">
          <mxGeometry x="20" y="15" width="30" height="30" as="geometry" />
        </mxCell>
        <mxCell id="AtJumpGjlEffW8sw83j1-13" value="Debezium SQL Server Source Connector" style="text;html=1;align=center;verticalAlign=middle;whiteSpace=wrap;rounded=0;" vertex="1" parent="AtJumpGjlEffW8sw83j1-14">
          <mxGeometry x="60" y="15" width="140" height="30" as="geometry" />
        </mxCell>
        <mxCell id="AtJumpGjlEffW8sw83j1-17" value="" style="group" vertex="1" connectable="0" parent="AtJumpGjlEffW8sw83j1-26">
          <mxGeometry x="20" y="147" width="210" height="60" as="geometry" />
        </mxCell>
        <mxCell id="AtJumpGjlEffW8sw83j1-18" value="" style="rounded=1;whiteSpace=wrap;html=1;" vertex="1" parent="AtJumpGjlEffW8sw83j1-17">
          <mxGeometry width="210" height="60" as="geometry" />
        </mxCell>
        <mxCell id="AtJumpGjlEffW8sw83j1-19" value="" style="shape=image;verticalLabelPosition=bottom;labelBackgroundColor=default;verticalAlign=top;aspect=fixed;imageAspect=0;image=https://www.confluent.io/hub/static/6e774deb22405f068a0977861bae4b1f/b6d35/color_debezium_256px.png;" vertex="1" parent="AtJumpGjlEffW8sw83j1-17">
          <mxGeometry x="20" y="15" width="30" height="30" as="geometry" />
        </mxCell>
        <mxCell id="AtJumpGjlEffW8sw83j1-20" value="Debezium MySQL Source Connector" style="text;html=1;align=center;verticalAlign=middle;whiteSpace=wrap;rounded=0;" vertex="1" parent="AtJumpGjlEffW8sw83j1-17">
          <mxGeometry x="60" y="15" width="140" height="30" as="geometry" />
        </mxCell>
        <mxCell id="AtJumpGjlEffW8sw83j1-21" value="" style="group" vertex="1" connectable="0" parent="AtJumpGjlEffW8sw83j1-26">
          <mxGeometry x="20" y="270" width="210" height="60" as="geometry" />
        </mxCell>
        <mxCell id="AtJumpGjlEffW8sw83j1-22" value="" style="rounded=1;whiteSpace=wrap;html=1;" vertex="1" parent="AtJumpGjlEffW8sw83j1-21">
          <mxGeometry width="210" height="60" as="geometry" />
        </mxCell>
        <mxCell id="AtJumpGjlEffW8sw83j1-23" value="" style="shape=image;verticalLabelPosition=bottom;labelBackgroundColor=default;verticalAlign=top;aspect=fixed;imageAspect=0;image=https://www.confluent.io/hub/static/6e774deb22405f068a0977861bae4b1f/b6d35/color_debezium_256px.png;" vertex="1" parent="AtJumpGjlEffW8sw83j1-21">
          <mxGeometry x="20" y="15" width="30" height="30" as="geometry" />
        </mxCell>
        <mxCell id="AtJumpGjlEffW8sw83j1-24" value="Debezium PostgreSQL Source Connector" style="text;html=1;align=center;verticalAlign=middle;whiteSpace=wrap;rounded=0;" vertex="1" parent="AtJumpGjlEffW8sw83j1-21">
          <mxGeometry x="60" y="15" width="140" height="30" as="geometry" />
        </mxCell>
        <mxCell id="AtJumpGjlEffW8sw83j1-28" value="" style="outlineConnect=0;dashed=0;verticalLabelPosition=bottom;verticalAlign=top;align=center;html=1;shape=mxgraph.aws3.queue;fillColor=#D9A741;gradientColor=none;" vertex="1" parent="1">
          <mxGeometry x="860" y="80" width="180" height="20" as="geometry" />
        </mxCell>
        <mxCell id="AtJumpGjlEffW8sw83j1-29" value="" style="outlineConnect=0;dashed=0;verticalLabelPosition=bottom;verticalAlign=top;align=center;html=1;shape=mxgraph.aws3.queue;fillColor=#D9A741;gradientColor=none;" vertex="1" parent="1">
          <mxGeometry x="860" y="160" width="180" height="20" as="geometry" />
        </mxCell>
        <mxCell id="AtJumpGjlEffW8sw83j1-30" value="" style="outlineConnect=0;dashed=0;verticalLabelPosition=bottom;verticalAlign=top;align=center;html=1;shape=mxgraph.aws3.queue;fillColor=#D9A741;gradientColor=none;" vertex="1" parent="1">
          <mxGeometry x="860" y="310" width="180" height="20" as="geometry" />
        </mxCell>
        <mxCell id="AtJumpGjlEffW8sw83j1-77" style="edgeStyle=orthogonalEdgeStyle;rounded=0;orthogonalLoop=1;jettySize=auto;html=1;entryX=0;entryY=0.5;entryDx=0;entryDy=0;" edge="1" parent="1" source="AtJumpGjlEffW8sw83j1-32" target="AtJumpGjlEffW8sw83j1-53">
          <mxGeometry relative="1" as="geometry" />
        </mxCell>
        <mxCell id="AtJumpGjlEffW8sw83j1-32" value="" style="outlineConnect=0;dashed=0;verticalLabelPosition=bottom;verticalAlign=top;align=center;html=1;shape=mxgraph.aws3.queue;fillColor=#D9A741;gradientColor=none;" vertex="1" parent="1">
          <mxGeometry x="860" y="225" width="180" height="20" as="geometry" />
        </mxCell>
        <mxCell id="AtJumpGjlEffW8sw83j1-33" value="&lt;b&gt;Kafka&lt;/b&gt;" style="text;html=1;align=center;verticalAlign=middle;whiteSpace=wrap;rounded=0;" vertex="1" parent="1">
          <mxGeometry x="830" y="30" width="60" height="30" as="geometry" />
        </mxCell>
        <mxCell id="AtJumpGjlEffW8sw83j1-34" value="" style="group" vertex="1" connectable="0" parent="1">
          <mxGeometry x="1260" y="70" width="250" height="400" as="geometry" />
        </mxCell>
        <mxCell id="AtJumpGjlEffW8sw83j1-55" value="" style="group" vertex="1" connectable="0" parent="AtJumpGjlEffW8sw83j1-34">
          <mxGeometry x="-10" y="70" width="250" height="300" as="geometry" />
        </mxCell>
        <mxCell id="AtJumpGjlEffW8sw83j1-35" value="&lt;b&gt;Kafka Connectors&lt;/b&gt;" style="text;html=1;align=center;verticalAlign=middle;whiteSpace=wrap;rounded=0;" vertex="1" parent="AtJumpGjlEffW8sw83j1-55">
          <mxGeometry x="70" y="270" width="60" height="30" as="geometry" />
        </mxCell>
        <mxCell id="AtJumpGjlEffW8sw83j1-36" value="" style="rounded=1;whiteSpace=wrap;html=1;" vertex="1" parent="AtJumpGjlEffW8sw83j1-55">
          <mxGeometry width="250" height="260" as="geometry" />
        </mxCell>
        <mxCell id="AtJumpGjlEffW8sw83j1-52" value="" style="group" vertex="1" connectable="0" parent="AtJumpGjlEffW8sw83j1-55">
          <mxGeometry x="10" y="150" width="210" height="60" as="geometry" />
        </mxCell>
        <mxCell id="AtJumpGjlEffW8sw83j1-53" value="" style="rounded=1;whiteSpace=wrap;html=1;" vertex="1" parent="AtJumpGjlEffW8sw83j1-52">
          <mxGeometry x="10" width="210" height="60" as="geometry" />
        </mxCell>
        <mxCell id="AtJumpGjlEffW8sw83j1-54" value="&lt;b&gt;ElasticSearch Sink Connector&lt;/b&gt;" style="text;html=1;align=center;verticalAlign=middle;whiteSpace=wrap;rounded=0;" vertex="1" parent="AtJumpGjlEffW8sw83j1-52">
          <mxGeometry x="43" y="15" width="140" height="30" as="geometry" />
        </mxCell>
        <mxCell id="AtJumpGjlEffW8sw83j1-38" value="" style="rounded=1;whiteSpace=wrap;html=1;" vertex="1" parent="AtJumpGjlEffW8sw83j1-55">
          <mxGeometry x="20" y="20" width="210" height="60" as="geometry" />
        </mxCell>
        <mxCell id="AtJumpGjlEffW8sw83j1-37" value="" style="group" vertex="1" connectable="0" parent="AtJumpGjlEffW8sw83j1-55">
          <mxGeometry x="20" y="22" width="210" height="60" as="geometry" />
        </mxCell>
        <mxCell id="AtJumpGjlEffW8sw83j1-40" value="&lt;b&gt;Http Sink Connector&lt;/b&gt;" style="text;html=1;align=center;verticalAlign=middle;whiteSpace=wrap;rounded=0;" vertex="1" parent="AtJumpGjlEffW8sw83j1-37">
          <mxGeometry x="30" y="15" width="140" height="30" as="geometry" />
        </mxCell>
        <mxCell id="AtJumpGjlEffW8sw83j1-56" value="&lt;b&gt;Function APP&lt;/b&gt;" style="image;aspect=fixed;html=1;points=[];align=center;fontSize=12;image=img/lib/azure2/compute/Function_Apps.svg;" vertex="1" parent="1">
          <mxGeometry x="1341" y="-10" width="68" height="60" as="geometry" />
        </mxCell>
        <mxCell id="AtJumpGjlEffW8sw83j1-61" style="edgeStyle=orthogonalEdgeStyle;rounded=0;orthogonalLoop=1;jettySize=auto;html=1;" edge="1" parent="1" source="AtJumpGjlEffW8sw83j1-2" target="AtJumpGjlEffW8sw83j1-12">
          <mxGeometry relative="1" as="geometry" />
        </mxCell>
        <mxCell id="AtJumpGjlEffW8sw83j1-62" style="edgeStyle=orthogonalEdgeStyle;rounded=0;orthogonalLoop=1;jettySize=auto;html=1;" edge="1" parent="1" source="AtJumpGjlEffW8sw83j1-4" target="AtJumpGjlEffW8sw83j1-18">
          <mxGeometry relative="1" as="geometry" />
        </mxCell>
        <mxCell id="AtJumpGjlEffW8sw83j1-63" style="edgeStyle=orthogonalEdgeStyle;rounded=0;orthogonalLoop=1;jettySize=auto;html=1;entryX=0;entryY=0.5;entryDx=0;entryDy=0;" edge="1" parent="1" source="AtJumpGjlEffW8sw83j1-5" target="AtJumpGjlEffW8sw83j1-22">
          <mxGeometry relative="1" as="geometry" />
        </mxCell>
        <mxCell id="AtJumpGjlEffW8sw83j1-64" style="edgeStyle=orthogonalEdgeStyle;rounded=0;orthogonalLoop=1;jettySize=auto;html=1;" edge="1" parent="1" source="AtJumpGjlEffW8sw83j1-13" target="AtJumpGjlEffW8sw83j1-28">
          <mxGeometry relative="1" as="geometry" />
        </mxCell>
        <mxCell id="AtJumpGjlEffW8sw83j1-66" style="edgeStyle=orthogonalEdgeStyle;rounded=0;orthogonalLoop=1;jettySize=auto;html=1;entryX=0;entryY=0.5;entryDx=0;entryDy=0;entryPerimeter=0;" edge="1" parent="1" source="AtJumpGjlEffW8sw83j1-20" target="AtJumpGjlEffW8sw83j1-29">
          <mxGeometry relative="1" as="geometry" />
        </mxCell>
        <mxCell id="AtJumpGjlEffW8sw83j1-67" style="edgeStyle=orthogonalEdgeStyle;rounded=0;orthogonalLoop=1;jettySize=auto;html=1;entryX=0;entryY=0.5;entryDx=0;entryDy=0;entryPerimeter=0;" edge="1" parent="1" source="AtJumpGjlEffW8sw83j1-20" target="AtJumpGjlEffW8sw83j1-32">
          <mxGeometry relative="1" as="geometry" />
        </mxCell>
        <mxCell id="AtJumpGjlEffW8sw83j1-68" style="edgeStyle=orthogonalEdgeStyle;rounded=0;orthogonalLoop=1;jettySize=auto;html=1;entryX=0;entryY=0.5;entryDx=0;entryDy=0;entryPerimeter=0;" edge="1" parent="1" source="AtJumpGjlEffW8sw83j1-24" target="AtJumpGjlEffW8sw83j1-30">
          <mxGeometry relative="1" as="geometry" />
        </mxCell>
        <mxCell id="AtJumpGjlEffW8sw83j1-69" style="edgeStyle=orthogonalEdgeStyle;rounded=0;orthogonalLoop=1;jettySize=auto;html=1;entryX=-0.015;entryY=0.5;entryDx=0;entryDy=0;entryPerimeter=0;" edge="1" parent="1" source="AtJumpGjlEffW8sw83j1-28" target="AtJumpGjlEffW8sw83j1-56">
          <mxGeometry relative="1" as="geometry" />
        </mxCell>
        <mxCell id="AtJumpGjlEffW8sw83j1-75" value="" style="group" vertex="1" connectable="0" parent="1">
          <mxGeometry x="1590" y="140" width="190" height="240" as="geometry" />
        </mxCell>
        <mxCell id="AtJumpGjlEffW8sw83j1-60" value="" style="rounded=1;whiteSpace=wrap;html=1;" vertex="1" parent="AtJumpGjlEffW8sw83j1-75">
          <mxGeometry width="190" height="240" as="geometry" />
        </mxCell>
        <mxCell id="AtJumpGjlEffW8sw83j1-57" value="" style="aspect=fixed;sketch=0;html=1;dashed=0;whitespace=wrap;verticalLabelPosition=bottom;verticalAlign=top;fillColor=#2875E2;strokeColor=#ffffff;points=[[0.005,0.63,0],[0.1,0.2,0],[0.9,0.2,0],[0.5,0,0],[0.995,0.63,0],[0.72,0.99,0],[0.5,1,0],[0.28,0.99,0]];shape=mxgraph.kubernetes.icon2;kubernetesLabel=1;prIcon=api" vertex="1" parent="AtJumpGjlEffW8sw83j1-75">
          <mxGeometry x="60" y="37" width="50" height="48" as="geometry" />
        </mxCell>
        <mxCell id="AtJumpGjlEffW8sw83j1-58" value="" style="shape=image;verticalLabelPosition=bottom;labelBackgroundColor=default;verticalAlign=top;aspect=fixed;imageAspect=0;image=https://e7.pngegg.com/pngimages/802/401/png-clipart-logo-elasticsearch-scalable-graphics-distributed-database-text-logo.png;" vertex="1" parent="AtJumpGjlEffW8sw83j1-75">
          <mxGeometry x="20" y="140.92999999999995" width="160" height="49.07" as="geometry" />
        </mxCell>
        <mxCell id="AtJumpGjlEffW8sw83j1-73" style="edgeStyle=orthogonalEdgeStyle;rounded=0;orthogonalLoop=1;jettySize=auto;html=1;exitX=1;exitY=0.5;exitDx=0;exitDy=0;entryX=0.005;entryY=0.63;entryDx=0;entryDy=0;entryPerimeter=0;" edge="1" parent="1" source="AtJumpGjlEffW8sw83j1-38" target="AtJumpGjlEffW8sw83j1-57">
          <mxGeometry relative="1" as="geometry" />
        </mxCell>
        <mxCell id="AtJumpGjlEffW8sw83j1-74" style="edgeStyle=orthogonalEdgeStyle;rounded=0;orthogonalLoop=1;jettySize=auto;html=1;exitX=1;exitY=0.5;exitDx=0;exitDy=0;" edge="1" parent="1" source="AtJumpGjlEffW8sw83j1-53" target="AtJumpGjlEffW8sw83j1-58">
          <mxGeometry relative="1" as="geometry" />
        </mxCell>
        <mxCell id="AtJumpGjlEffW8sw83j1-70" style="edgeStyle=orthogonalEdgeStyle;rounded=0;orthogonalLoop=1;jettySize=auto;html=1;exitX=1;exitY=0.5;exitDx=0;exitDy=0;exitPerimeter=0;entryX=0;entryY=0.5;entryDx=0;entryDy=0;" edge="1" parent="1" source="AtJumpGjlEffW8sw83j1-29" target="AtJumpGjlEffW8sw83j1-38">
          <mxGeometry relative="1" as="geometry" />
        </mxCell>
        <mxCell id="AtJumpGjlEffW8sw83j1-72" style="edgeStyle=orthogonalEdgeStyle;rounded=0;orthogonalLoop=1;jettySize=auto;html=1;" edge="1" parent="1" source="AtJumpGjlEffW8sw83j1-30" target="AtJumpGjlEffW8sw83j1-53">
          <mxGeometry relative="1" as="geometry" />
        </mxCell>
      </root>
    </mxGraphModel>
  </diagram>
</mxfile>
